SplineFontDB: 3.2
FontName: UnicodiaEgypFixupRegular
FullName: UnicodiaEgypFixupRegular
FamilyName: UnicodiaEgypFixup
Weight: Regular
Copyright: Copyright 2022 The Noto Project Authors (https://github.com/notofonts/egyptian-hieroglyphs)
Version: 2.1
ItalicAngle: 0
UnderlinePosition: -100
UnderlineWidth: 50
Ascent: 800
Descent: 200
InvalidEm: 1
UFOAscent: 1001
UFODescent: -138
LayerCount: 2
Layer: 0 0 "+BBcEMAQ0BD0EOAQ5 +BD8EOwQwBD0A" 1
Layer: 1 0 "public.default" 0 "glyphs"
StyleMap: 0x0040
FSType: 0
OS2Version: 0
OS2_WeightWidthSlopeOnly: 0
OS2_UseTypoMetrics: 0
CreationTime: 1698529057
ModificationTime: 1708507496
PfmFamily: 17
TTFWeight: 400
TTFWidth: 5
LineGap: 0
VLineGap: 0
Panose: 2 11 5 2 4 5 4 2 2 4
OS2TypoAscent: 1324
OS2TypoAOffset: 0
OS2TypoDescent: -326
OS2TypoDOffset: 0
OS2TypoLinegap: 0
OS2WinAscent: 1324
OS2WinAOffset: 0
OS2WinDescent: 326
OS2WinDOffset: 0
HheadAscent: 1324
HheadAOffset: 0
HheadDescent: -326
HheadDOffset: 0
OS2CapHeight: 900
OS2XHeight: 536
OS2Vendor: 'GOOG'
OS2CodePages: 00000001.00000000
OS2UnicodeRanges: 80000003.02002000.00000000.00000000
MarkAttachClasses: 1
DEI: 91125
LangName: 1033 "Copyright 2022 The Noto Project Authors (https://github.com/notofonts/egyptian-hieroglyphs)" "" "" "" "" "Version 2.001" "" "Noto is a trademark of Google Inc." "Monotype Imaging Inc." "Monotype Design Team" "Designed by Monotype design team." "http://www.google.com/get/noto/" "http://www.monotype.com/studio" "This Font Software is licensed under the SIL Open Font License, Version 1.1. This license is available with a FAQ at: https://scripts.sil.org/OFL" "https://scripts.sil.org/OFL"
Encoding: UnicodeFull
Compacted: 1
UnicodeInterp: none
NameList: AGL For New Fonts
DisplaySize: -48
AntiAlias: 1
FitToEm: 0
WinInfo: 0 33 14
BeginPrivate: 4
BlueValues 33 [-15 0 536 551 900 915 1001 1016]
OtherBlues 11 [-153 -138]
StemSnapH 7 [19 51]
StemSnapV 7 [19 51]
EndPrivate
Grid
46.5 1300 m 1
 46.5 -700 l 1025
EndSplineSet

StartChar: .notdef
Encoding: 1114112 -1 0
GlifName: _notdef
Width: 600
VWidth: 0
Flags: W
LayerCount: 2
Fore
SplineSet
94 0 m 257
 505 0 l 257
 505 714 l 257
 94 714 l 257
 94 0 l 257
145 51 m 257
 145 663 l 257
 454 663 l 257
 454 51 l 257
 145 51 l 257
EndSplineSet
EndChar

StartChar: u133FA
Encoding: 78842 78842 3
GlifName: u133F_A_
Width: 117
VWidth: 0
Flags: W
HStem: 0 21G<49 68>
VStem: 49 19<0 416>
LayerCount: 2
Fore
SplineSet
49 0 m 257
 49 416 l 261
 68 416 l 257
 68 0 l 257
 49 0 l 257
EndSplineSet
EndChar

StartChar: u133FB
Encoding: 78843 78843 4
GlifName: u133F_B_
Width: 274
VWidth: 0
Flags: W
HStem: 0 21G<49 68 206 225>
VStem: 49 19<0 416> 206 19<0 416>
LayerCount: 2
Fore
SplineSet
206 0 m 257
 206 416 l 257
 225 416 l 257
 225 0 l 257
 206 0 l 257
49 0 m 257
 49 416 l 257
 68 416 l 257
 68 0 l 257
 49 0 l 257
EndSplineSet
EndChar

StartChar: u133FC
Encoding: 78844 78844 5
GlifName: u133F_C_
Width: 431
VWidth: 0
Flags: W
HStem: 0 21G<49 68 206 225 362 382>
VStem: 49 19<0 416> 206 19<0 416> 362 20<0 416>
CounterMasks: 1 70
LayerCount: 2
Fore
SplineSet
362 0 m 257
 362 416 l 257
 382 416 l 257
 382 0 l 257
 362 0 l 257
49 0 m 257
 49 416 l 257
 68 416 l 257
 68 0 l 257
 49 0 l 257
206 0 m 257
 206 416 l 257
 225 416 l 257
 225 0 l 257
 206 0 l 257
EndSplineSet
EndChar

StartChar: u133FD
Encoding: 78845 78845 6
GlifName: u133F_D_
Width: 587
VWidth: 0
Flags: W
HStem: 0 21G<49 68 206 225 362 382 519 539>
VStem: 49 19<0 416> 206 19<0 416> 362 20<0 416> 519 20<0 416>
CounterMasks: 1 78
LayerCount: 2
Fore
SplineSet
519 0 m 257
 519 416 l 257
 539 416 l 257
 539 0 l 257
 519 0 l 257
49 0 m 257
 49 416 l 257
 68 416 l 257
 68 0 l 257
 49 0 l 257
206 0 m 257
 206 416 l 257
 225 416 l 257
 225 0 l 257
 206 0 l 257
362 0 m 257
 362 416 l 257
 382 416 l 257
 382 0 l 257
 362 0 l 257
EndSplineSet
EndChar

StartChar: u133FE
Encoding: 78846 78846 7
GlifName: u133F_E_
Width: 431
VWidth: 0
Flags: W
HStem: 0 21G<128 147 285 304>
VStem: 49 19<527 943> 128 19<0 416> 206 19<527 943> 285 19<0 416> 362 20<527 943>
CounterMasks: 1 54
LayerCount: 2
Fore
SplineSet
362 527 m 257
 362 943 l 257
 382 943 l 257
 382 527 l 257
 362 527 l 257
128 0 m 257
 128 416 l 257
 147 416 l 257
 147 0 l 257
 128 0 l 257
285 0 m 257
 285 416 l 257
 304 416 l 257
 304 0 l 257
 285 0 l 257
49 527 m 257
 49 943 l 257
 68 943 l 257
 68 527 l 257
 49 527 l 257
206 527 m 257
 206 943 l 257
 225 943 l 257
 225 527 l 257
 206 527 l 257
EndSplineSet
EndChar

StartChar: u133FF
Encoding: 78847 78847 8
GlifName: u133F_F_
Width: 431
VWidth: 0
Flags: W
HStem: 0 21G<49 68 206 225 362 382>
VStem: 49 19<0 416 527 943> 206 19<0 416 527 943> 362 20<0 416 527 943>
CounterMasks: 1 70
LayerCount: 2
Fore
SplineSet
362 527 m 257
 362 943 l 257
 382 943 l 257
 382 527 l 257
 362 527 l 257
49 0 m 257
 49 416 l 257
 68 416 l 257
 68 0 l 257
 49 0 l 257
206 0 m 257
 206 416 l 257
 225 416 l 257
 225 0 l 257
 206 0 l 257
362 0 m 257
 362 416 l 257
 382 416 l 257
 382 0 l 257
 362 0 l 257
49 527 m 257
 49 943 l 257
 68 943 l 257
 68 527 l 257
 49 527 l 257
206 527 m 257
 206 943 l 257
 225 943 l 257
 225 527 l 257
 206 527 l 257
EndSplineSet
EndChar

StartChar: u13400
Encoding: 78848 78848 9
GlifName: u13400
Width: 587
VWidth: 0
Flags: W
HStem: 0 21G<127 146 284 303 440 460>
VStem: 49 19<527 943> 127 19<0 416> 206 19<527 943> 284 19<0 416> 362 20<527 943> 440 20<0 416> 519 20<527 943>
CounterMasks: 2 55 2a
LayerCount: 2
Fore
SplineSet
519 527 m 257
 519 943 l 257
 539 943 l 257
 539 527 l 257
 519 527 l 257
127 0 m 257
 127 416 l 257
 146 416 l 257
 146 0 l 257
 127 0 l 257
284 0 m 257
 284 416 l 257
 303 416 l 257
 303 0 l 257
 284 0 l 257
440 0 m 257
 440 416 l 257
 460 416 l 257
 460 0 l 257
 440 0 l 257
49 527 m 257
 49 943 l 257
 68 943 l 257
 68 527 l 257
 49 527 l 257
206 527 m 257
 206 943 l 257
 225 943 l 257
 225 527 l 257
 206 527 l 257
362 527 m 257
 362 943 l 257
 382 943 l 257
 382 527 l 257
 362 527 l 257
EndSplineSet
EndChar

StartChar: u13401
Encoding: 78849 78849 10
GlifName: u13401
Width: 587
VWidth: 0
Flags: W
HStem: 0 21G<49 68 206 225 362 382 519 539>
VStem: 49 19<0 416 527 943> 206 19<0 416 527 943> 362 20<0 416 527 943> 519 20<0 416 527 943>
CounterMasks: 1 78
LayerCount: 2
Fore
SplineSet
519 527 m 257
 519 943 l 257
 539 943 l 257
 539 527 l 257
 519 527 l 257
49 0 m 257
 49 416 l 257
 68 416 l 257
 68 0 l 257
 49 0 l 257
206 0 m 257
 206 416 l 257
 225 416 l 257
 225 0 l 257
 206 0 l 257
362 0 m 257
 362 416 l 257
 382 416 l 257
 382 0 l 257
 362 0 l 257
519 0 m 257
 519 416 l 257
 539 416 l 257
 539 0 l 257
 519 0 l 257
49 527 m 257
 49 943 l 257
 68 943 l 257
 68 527 l 257
 49 527 l 257
206 527 m 257
 206 943 l 257
 225 943 l 257
 225 527 l 257
 206 527 l 257
362 527 m 257
 362 943 l 257
 382 943 l 257
 382 527 l 257
 362 527 l 257
EndSplineSet
EndChar

StartChar: u13402
Encoding: 78850 78850 11
GlifName: u13402
Width: 431
VWidth: 0
Flags: W
HStem: 982 20G<49 68 206 225 362 382>
VStem: 49 19<-34 260 337 631 708 1002> 206 19<-34 260 337 631 708 1002> 362 20<-34 260 337 631 708 1002>
CounterMasks: 1 70
LayerCount: 2
Fore
SplineSet
362 708 m 257
 362 1002 l 257
 382 1002 l 257
 382 708 l 257
 362 708 l 257
49 -34 m 257
 49 260 l 257
 68 260 l 257
 68 -34 l 257
 49 -34 l 257
206 -34 m 257
 206 260 l 257
 225 260 l 257
 225 -34 l 257
 206 -34 l 257
362 -34 m 257
 362 260 l 257
 382 260 l 257
 382 -34 l 257
 362 -34 l 257
49 337 m 257
 49 631 l 257
 68 631 l 257
 68 337 l 257
 49 337 l 257
206 337 m 257
 206 631 l 257
 225 631 l 257
 225 337 l 257
 206 337 l 257
362 337 m 257
 362 631 l 257
 382 631 l 257
 382 337 l 257
 362 337 l 257
49 708 m 257
 49 1002 l 257
 68 1002 l 257
 68 708 l 257
 49 708 l 257
206 708 m 257
 206 1002 l 257
 225 1002 l 257
 225 708 l 257
 206 708 l 257
EndSplineSet
EndChar

StartChar: u13403
Encoding: 78851 78851 12
GlifName: u13403
Width: 744
VWidth: 0
Flags: W
HStem: 0 21G<49 68 206 225 362 382 519 539 676 695>
VStem: 49 19<0 416> 206 19<0 416> 362 20<0 416> 519 20<0 416> 676 19<0 416>
CounterMasks: 1 7c
LayerCount: 2
Fore
SplineSet
519 0 m 257
 519 416 l 257
 539 416 l 257
 539 0 l 257
 519 0 l 257
49 0 m 257
 49 416 l 257
 68 416 l 257
 68 0 l 257
 49 0 l 257
206 0 m 257
 206 416 l 257
 225 416 l 257
 225 0 l 257
 206 0 l 257
362 0 m 257
 362 416 l 257
 382 416 l 257
 382 0 l 257
 362 0 l 257
676 0 m 257
 676 416 l 257
 695 416 l 257
 695 0 l 257
 676 0 l 257
EndSplineSet
EndChar

StartChar: u13404
Encoding: 78852 78852 13
GlifName: u13404
Width: 513
VWidth: 0
Flags: W
HStem: 198 19<49 464>
LayerCount: 2
Fore
SplineSet
49 217 m 257
 464 217 l 257
 464 198 l 257
 49 198 l 257
 49 217 l 257
EndSplineSet
EndChar

StartChar: u13405
Encoding: 78853 78853 14
GlifName: u13405
Width: 513
VWidth: 0
Flags: W
HStem: 115 19<49 464> 281 19<49 464>
LayerCount: 2
Fore
SplineSet
49 281 m 257
 49 300 l 257
 464 300 l 257
 464 281 l 257
 49 281 l 257
49 115 m 257
 49 134 l 257
 464 134 l 257
 464 115 l 257
 49 115 l 257
EndSplineSet
EndChar

StartChar: u13406
Encoding: 78854 78854 15
GlifName: u13406
Width: 513
VWidth: 0
Flags: W
HStem: 32 19<49 464> 198 19<49 464> 364 19<49 464>
CounterMasks: 1 e0
LayerCount: 2
Fore
SplineSet
49 364 m 257
 49 383 l 257
 464 383 l 257
 464 364 l 257
 49 364 l 257
49 32 m 257
 49 51 l 257
 464 51 l 257
 464 32 l 257
 49 32 l 257
49 198 m 257
 49 217 l 257
 464 217 l 257
 464 198 l 257
 49 198 l 257
EndSplineSet
EndChar

StartChar: u13407
Encoding: 78855 78855 16
GlifName: u13407
Width: 513
VWidth: 0
Flags: W
HStem: -51 19<49 464> 115 19<49 464> 281 19<49 464> 447 19<49 464>
CounterMasks: 1 f0
LayerCount: 2
Fore
SplineSet
49 447 m 257
 49 466 l 257
 464 466 l 257
 464 447 l 257
 49 447 l 257
49 -51 m 257
 49 -32 l 257
 464 -32 l 257
 464 -51 l 257
 49 -51 l 257
49 115 m 257
 49 134 l 257
 464 134 l 257
 464 115 l 257
 49 115 l 257
49 281 m 257
 49 300 l 257
 464 300 l 257
 464 281 l 257
 49 281 l 257
EndSplineSet
EndChar

StartChar: u13408
Encoding: 78856 78856 17
GlifName: u13408
Width: 1006
VWidth: 0
Flags: W
HStem: 32 19<49 464> 115 19<542 958> 198 19<49 464> 281 19<542 958> 364 19<49 464>
CounterMasks: 1 a8
LayerCount: 2
Fore
SplineSet
542 281 m 257
 542 300 l 257
 958 300 l 257
 958 281 l 257
 542 281 l 257
49 32 m 257
 49 51 l 257
 464 51 l 257
 464 32 l 257
 49 32 l 257
49 198 m 257
 49 217 l 257
 464 217 l 257
 464 198 l 257
 49 198 l 257
49 364 m 257
 49 383 l 257
 464 383 l 257
 464 364 l 257
 49 364 l 257
542 115 m 257
 542 134 l 257
 958 134 l 257
 958 115 l 257
 542 115 l 257
EndSplineSet
EndChar

StartChar: u13409
Encoding: 78857 78857 18
GlifName: u13409
Width: 1006
VWidth: 0
Flags: W
HStem: 32 19<49 464 542 958> 198 19<49 464 542 958> 364 19<49 464 542 958>
CounterMasks: 1 e0
LayerCount: 2
Fore
SplineSet
542 364 m 257
 542 383 l 257
 958 383 l 257
 958 364 l 257
 542 364 l 257
49 32 m 257
 49 51 l 257
 464 51 l 257
 464 32 l 257
 49 32 l 257
49 198 m 257
 49 217 l 257
 464 217 l 257
 464 198 l 257
 49 198 l 257
49 364 m 257
 49 383 l 257
 464 383 l 257
 464 364 l 257
 49 364 l 257
542 32 m 257
 542 51 l 257
 958 51 l 257
 958 32 l 257
 542 32 l 257
542 198 m 257
 542 217 l 257
 958 217 l 257
 958 198 l 257
 542 198 l 257
EndSplineSet
EndChar

StartChar: u1340A
Encoding: 78858 78858 19
GlifName: u1340A_
Width: 1006
VWidth: 0
Flags: W
HStem: -51 19<49 464> 32 19<542 958> 115 19<49 464> 198 19<542 958> 281 19<49 464> 364 19<542 958> 447 19<49 464>
CounterMasks: 2 aa 54
LayerCount: 2
Fore
SplineSet
542 364 m 257
 542 383 l 257
 958 383 l 257
 958 364 l 257
 542 364 l 257
49 -51 m 257
 49 -32 l 257
 464 -32 l 257
 464 -51 l 257
 49 -51 l 257
49 115 m 257
 49 134 l 257
 464 134 l 257
 464 115 l 257
 49 115 l 257
49 281 m 257
 49 300 l 257
 464 300 l 257
 464 281 l 257
 49 281 l 257
49 447 m 257
 49 466 l 257
 464 466 l 257
 464 447 l 257
 49 447 l 257
542 32 m 257
 542 51 l 257
 958 51 l 257
 958 32 l 257
 542 32 l 257
542 198 m 257
 542 217 l 257
 958 217 l 257
 958 198 l 257
 542 198 l 257
EndSplineSet
EndChar

StartChar: u1340B
Encoding: 78859 78859 20
GlifName: u1340B_
Width: 1006
VWidth: 0
Flags: W
HStem: -51 19<49 464 542 958> 115 19<49 464 542 958> 281 19<49 464 542 958> 447 19<49 464 542 958>
CounterMasks: 1 f0
LayerCount: 2
Fore
SplineSet
542 447 m 257
 542 466 l 257
 958 466 l 257
 958 447 l 257
 542 447 l 257
49 -51 m 257
 49 -32 l 257
 464 -32 l 257
 464 -51 l 257
 49 -51 l 257
49 115 m 257
 49 134 l 257
 464 134 l 257
 464 115 l 257
 49 115 l 257
49 281 m 257
 49 300 l 257
 464 300 l 257
 464 281 l 257
 49 281 l 257
542 -51 m 257
 542 -32 l 257
 958 -32 l 257
 958 -51 l 257
 542 -51 l 257
49 447 m 257
 49 466 l 257
 464 466 l 257
 464 447 l 257
 49 447 l 257
542 115 m 257
 542 134 l 257
 958 134 l 257
 958 115 l 257
 542 115 l 257
542 281 m 257
 542 300 l 257
 958 300 l 257
 958 281 l 257
 542 281 l 257
EndSplineSet
EndChar

StartChar: u1340C
Encoding: 78860 78860 21
GlifName: u1340C_
Width: 1500
VWidth: 0
Flags: W
HStem: 32 19<49 464 542 958 1035 1451> 198 19<49 464 542 958 1035 1451> 364 19<49 464 542 958 1035 1451>
CounterMasks: 1 e0
LayerCount: 2
Fore
SplineSet
1035 364 m 257
 1035 383 l 257
 1451 383 l 257
 1451 364 l 257
 1035 364 l 257
49 32 m 257
 49 51 l 257
 464 51 l 257
 464 32 l 257
 49 32 l 257
49 198 m 257
 49 217 l 257
 464 217 l 257
 464 198 l 257
 49 198 l 257
49 364 m 257
 49 383 l 257
 464 383 l 257
 464 364 l 257
 49 364 l 257
542 32 m 257
 542 51 l 257
 958 51 l 257
 958 32 l 257
 542 32 l 257
542 198 m 257
 542 217 l 257
 958 217 l 257
 958 198 l 257
 542 198 l 257
542 364 m 257
 542 383 l 257
 958 383 l 257
 958 364 l 257
 542 364 l 257
1035 32 m 257
 1035 51 l 257
 1451 51 l 257
 1451 32 l 257
 1035 32 l 257
1035 198 m 257
 1035 217 l 257
 1451 217 l 257
 1451 198 l 257
 1035 198 l 257
EndSplineSet
EndChar

StartChar: uni200C
Encoding: 8204 8204 23
GlifName: uni200C_
Width: 0
VWidth: 0
VStem: -21 42
LayerCount: 2
Fore
SplineSet
-21 -133 m 257
 21 -133 l 257
 21 628 l 257
 -21 628 l 257
 -21 -133 l 257
EndSplineSet
EndChar

StartChar: uni200D
Encoding: 8205 8205 24
GlifName: uni200D_
Width: 0
VWidth: 0
HStem: 515 20G<-41 -21 21 41>
LayerCount: 2
Fore
SplineSet
-21 -133 m 257
 21 -133 l 257
 21 535 l 257
 83 473 l 257
 109 500 l 257
 27 582 l 257
 109 663 l 257
 83 690 l 257
 0 607 l 257
 -83 690 l 257
 -109 663 l 257
 -27 582 l 257
 -109 500 l 257
 -83 473 l 257
 -21 535 l 257
 -21 -133 l 257
EndSplineSet
EndChar

StartChar: uni25CC
Encoding: 9676 9676 25
GlifName: uni25C_C_
Width: 1389
VWidth: 0
GlyphClass: 2
Flags: HMW
LayerCount: 2
Fore
SplineSet
151.994140625 453.5 m 0
 151.994140625 475.591796875 169.903320312 493.5 191.994140625 493.5 c 0
 214.0859375 493.5 231.994140625 475.591796875 231.994140625 453.5 c 0
 231.994140625 431.408203125 214.0859375 413.5 191.994140625 413.5 c 0
 169.903320312 413.5 151.994140625 431.408203125 151.994140625 453.5 c 0
169.1171875 583.557617188 m 0
 169.1171875 605.649414062 187.025390625 623.557617188 209.1171875 623.557617188 c 0
 231.208007812 623.557617188 249.1171875 605.649414062 249.1171875 583.557617188 c 0
 249.1171875 561.466796875 231.208007812 543.557617188 209.1171875 543.557617188 c 0
 187.025390625 543.557617188 169.1171875 561.466796875 169.1171875 583.557617188 c 0
219.317382812 704.752929688 m 0
 219.317382812 726.84375 237.225585938 744.752929688 259.317382812 744.752929688 c 0
 281.409179688 744.752929688 299.317382812 726.84375 299.317382812 704.752929688 c 0
 299.317382812 682.661132812 281.409179688 664.752929688 259.317382812 664.752929688 c 0
 237.225585938 664.752929688 219.317382812 682.661132812 219.317382812 704.752929688 c 0
299.174804688 808.825195312 m 0
 299.174804688 830.916992188 317.083007812 848.825195312 339.174804688 848.825195312 c 0
 361.266601562 848.825195312 379.174804688 830.916992188 379.174804688 808.825195312 c 0
 379.174804688 786.733398438 361.266601562 768.825195312 339.174804688 768.825195312 c 0
 317.083007812 768.825195312 299.174804688 786.733398438 299.174804688 808.825195312 c 0
403.247070312 888.682617188 m 0
 403.247070312 910.774414062 421.15625 928.682617188 443.247070312 928.682617188 c 0
 465.338867188 928.682617188 483.247070312 910.774414062 483.247070312 888.682617188 c 0
 483.247070312 866.590820312 465.338867188 848.682617188 443.247070312 848.682617188 c 0
 421.15625 848.682617188 403.247070312 866.590820312 403.247070312 888.682617188 c 0
524.442382812 938.8828125 m 0
 524.442382812 960.974609375 542.350585938 978.8828125 564.442382812 978.8828125 c 0
 586.533203125 978.8828125 604.442382812 960.974609375 604.442382812 938.8828125 c 0
 604.442382812 916.791992188 586.533203125 898.8828125 564.442382812 898.8828125 c 0
 542.350585938 898.8828125 524.442382812 916.791992188 524.442382812 938.8828125 c 0
654.5 956.005859375 m 0
 654.5 978.096679688 672.408203125 996.005859375 694.5 996.005859375 c 0
 716.591796875 996.005859375 734.5 978.096679688 734.5 956.005859375 c 0
 734.5 933.9140625 716.591796875 916.005859375 694.5 916.005859375 c 0
 672.408203125 916.005859375 654.5 933.9140625 654.5 956.005859375 c 0
784.557617188 938.8828125 m 0
 784.557617188 960.974609375 802.466796875 978.8828125 824.557617188 978.8828125 c 0
 846.649414062 978.8828125 864.557617188 960.974609375 864.557617188 938.8828125 c 0
 864.557617188 916.791992188 846.649414062 898.8828125 824.557617188 898.8828125 c 0
 802.466796875 898.8828125 784.557617188 916.791992188 784.557617188 938.8828125 c 0
905.752929688 888.682617188 m 0
 905.752929688 910.774414062 923.661132812 928.682617188 945.752929688 928.682617188 c 0
 967.84375 928.682617188 985.752929688 910.774414062 985.752929688 888.682617188 c 0
 985.752929688 866.590820312 967.84375 848.682617188 945.752929688 848.682617188 c 0
 923.661132812 848.682617188 905.752929688 866.590820312 905.752929688 888.682617188 c 0
1009.82519531 808.825195312 m 0
 1009.82519531 830.916992188 1027.73339844 848.825195312 1049.82519531 848.825195312 c 0
 1071.91699219 848.825195312 1089.82519531 830.916992188 1089.82519531 808.825195312 c 0
 1089.82519531 786.733398438 1071.91699219 768.825195312 1049.82519531 768.825195312 c 0
 1027.73339844 768.825195312 1009.82519531 786.733398438 1009.82519531 808.825195312 c 0
1089.68261719 704.752929688 m 0
 1089.68261719 726.84375 1107.59082031 744.752929688 1129.68261719 744.752929688 c 0
 1151.77441406 744.752929688 1169.68261719 726.84375 1169.68261719 704.752929688 c 0
 1169.68261719 682.661132812 1151.77441406 664.752929688 1129.68261719 664.752929688 c 0
 1107.59082031 664.752929688 1089.68261719 682.661132812 1089.68261719 704.752929688 c 0
1139.8828125 583.557617188 m 0
 1139.8828125 605.649414062 1157.79199219 623.557617188 1179.8828125 623.557617188 c 0
 1201.97460938 623.557617188 1219.8828125 605.649414062 1219.8828125 583.557617188 c 0
 1219.8828125 561.466796875 1201.97460938 543.557617188 1179.8828125 543.557617188 c 0
 1157.79199219 543.557617188 1139.8828125 561.466796875 1139.8828125 583.557617188 c 0
1157.00585938 453.5 m 0
 1157.00585938 475.591796875 1174.9140625 493.5 1197.00585938 493.5 c 0
 1219.09667969 493.5 1237.00585938 475.591796875 1237.00585938 453.5 c 0
 1237.00585938 431.408203125 1219.09667969 413.5 1197.00585938 413.5 c 0
 1174.9140625 413.5 1157.00585938 431.408203125 1157.00585938 453.5 c 0
1139.8828125 323.442382812 m 0
 1139.8828125 345.533203125 1157.79199219 363.442382812 1179.8828125 363.442382812 c 0
 1201.97460938 363.442382812 1219.8828125 345.533203125 1219.8828125 323.442382812 c 0
 1219.8828125 301.350585938 1201.97460938 283.442382812 1179.8828125 283.442382812 c 0
 1157.79199219 283.442382812 1139.8828125 301.350585938 1139.8828125 323.442382812 c 0
1089.68261719 202.247070312 m 0
 1089.68261719 224.338867188 1107.59082031 242.247070312 1129.68261719 242.247070312 c 0
 1151.77441406 242.247070312 1169.68261719 224.338867188 1169.68261719 202.247070312 c 0
 1169.68261719 180.15625 1151.77441406 162.247070312 1129.68261719 162.247070312 c 0
 1107.59082031 162.247070312 1089.68261719 180.15625 1089.68261719 202.247070312 c 0
169.1171875 323.442382812 m 0
 169.1171875 345.533203125 187.025390625 363.442382812 209.1171875 363.442382812 c 0
 231.208007812 363.442382812 249.1171875 345.533203125 249.1171875 323.442382812 c 0
 249.1171875 301.350585938 231.208007812 283.442382812 209.1171875 283.442382812 c 0
 187.025390625 283.442382812 169.1171875 301.350585938 169.1171875 323.442382812 c 0
219.317382812 202.247070312 m 0
 219.317382812 224.338867188 237.225585938 242.247070312 259.317382812 242.247070312 c 0
 281.409179688 242.247070312 299.317382812 224.338867188 299.317382812 202.247070312 c 0
 299.317382812 180.15625 281.409179688 162.247070312 259.317382812 162.247070312 c 0
 237.225585938 162.247070312 219.317382812 180.15625 219.317382812 202.247070312 c 0
299.174804688 98.1748046875 m 0
 299.174804688 120.266601562 317.083007812 138.174804688 339.174804688 138.174804688 c 0
 361.266601562 138.174804688 379.174804688 120.266601562 379.174804688 98.1748046875 c 0
 379.174804688 76.0830078125 361.266601562 58.1748046875 339.174804688 58.1748046875 c 0
 317.083007812 58.1748046875 299.174804688 76.0830078125 299.174804688 98.1748046875 c 0
403.247070312 18.3173828125 m 0
 403.247070312 40.4091796875 421.15625 58.3173828125 443.247070312 58.3173828125 c 0
 465.338867188 58.3173828125 483.247070312 40.4091796875 483.247070312 18.3173828125 c 0
 483.247070312 -3.7744140625 465.338867188 -21.6826171875 443.247070312 -21.6826171875 c 0
 421.15625 -21.6826171875 403.247070312 -3.7744140625 403.247070312 18.3173828125 c 0
524.442382812 -31.8828125 m 0
 524.442382812 -9.7919921875 542.350585938 8.1171875 564.442382812 8.1171875 c 0
 586.533203125 8.1171875 604.442382812 -9.7919921875 604.442382812 -31.8828125 c 0
 604.442382812 -53.974609375 586.533203125 -71.8828125 564.442382812 -71.8828125 c 0
 542.350585938 -71.8828125 524.442382812 -53.974609375 524.442382812 -31.8828125 c 0
654.5 -49.005859375 m 0
 654.5 -26.9140625 672.408203125 -9.005859375 694.5 -9.005859375 c 0
 716.591796875 -9.005859375 734.5 -26.9140625 734.5 -49.005859375 c 0
 734.5 -71.0966796875 716.591796875 -89.005859375 694.5 -89.005859375 c 0
 672.408203125 -89.005859375 654.5 -71.0966796875 654.5 -49.005859375 c 0
784.557617188 -31.8828125 m 0
 784.557617188 -9.7919921875 802.466796875 8.1171875 824.557617188 8.1171875 c 0
 846.649414062 8.1171875 864.557617188 -9.7919921875 864.557617188 -31.8828125 c 0
 864.557617188 -53.974609375 846.649414062 -71.8828125 824.557617188 -71.8828125 c 0
 802.466796875 -71.8828125 784.557617188 -53.974609375 784.557617188 -31.8828125 c 0
905.752929688 18.3173828125 m 0
 905.752929688 40.4091796875 923.661132812 58.3173828125 945.752929688 58.3173828125 c 0
 967.844726562 58.3173828125 985.752929688 40.4091796875 985.752929688 18.3173828125 c 0
 985.752929688 -3.7744140625 967.844726562 -21.6826171875 945.752929688 -21.6826171875 c 0
 923.661132812 -21.6826171875 905.752929688 -3.7744140625 905.752929688 18.3173828125 c 0
1009.82519531 98.1748046875 m 0
 1009.82519531 120.266601562 1027.73339844 138.174804688 1049.82519531 138.174804688 c 0
 1071.91699219 138.174804688 1089.82519531 120.266601562 1089.82519531 98.1748046875 c 0
 1089.82519531 76.0830078125 1071.91699219 58.1748046875 1049.82519531 58.1748046875 c 0
 1027.73339844 58.1748046875 1009.82519531 76.0830078125 1009.82519531 98.1748046875 c 0
EndSplineSet
EndChar

StartChar: u13455
Encoding: 78933 78933 26
Width: 0
Flags: MWO
LayerCount: 2
Fore
SplineSet
-1237 1067 m 1
 -1209 1067 l 1
 -1340 936 l 1
 -1340 964 l 1
 -1237 1067 l 1
-1047 1067 m 1
 -1019 1067 l 1
 -1340 746 l 1
 -1340 774 l 1
 -1047 1067 l 1
-857 1067 m 1
 -829 1067 l 1
 -1340 556 l 1
 -1340 584 l 1
 -857 1067 l 1
-667 1067 m 1
 -639 1067 l 1
 -1340 366 l 1
 -1340 394 l 1
 -667 1067 l 1
-477 1067 m 1
 -449 1067 l 1
 -1340 176 l 1
 -1340 204 l 1
 -477 1067 l 1
-287 1067 m 1
 -259 1067 l 1
 -1340 -14 l 1
 -1340 14 l 1
 -287 1067 l 1
-97 1067 m 1
 -69 1067 l 1
 -1296 -160 l 1
 -1324 -160 l 1
 -97 1067 l 1
-49 925 m 1
 -49 897 l 1
 -1106 -160 l 1
 -1134 -160 l 1
 -49 925 l 1
-49 735 m 1
 -49 707 l 1
 -916 -160 l 1
 -944 -160 l 1
 -49 735 l 1
-49 545 m 1
 -49 517 l 1
 -726 -160 l 1
 -754 -160 l 1
 -49 545 l 1
-49 355 m 1
 -49 327 l 1
 -536 -160 l 1
 -564 -160 l 1
 -49 355 l 1
-49 165 m 1
 -49 137 l 1
 -346 -160 l 1
 -374 -160 l 1
 -49 165 l 1
-49 -25 m 1
 -49 -53 l 1
 -156 -160 l 1
 -184 -160 l 1
 -49 -25 l 1
EndSplineSet
EndChar

StartChar: u13447
Encoding: 78919 78919 27
Width: 0
Flags: M
LayerCount: 2
Fore
SplineSet
-1237 1067 m 1
 -1209 1067 l 1
 -1340 936 l 1
 -1340 964 l 1
 -1237 1067 l 1
-1047 1067 m 1
 -1019 1067 l 1
 -1340 746 l 1
 -1340 774 l 1
 -1047 1067 l 1
-857 1067 m 1
 -829 1067 l 1
 -1340 556 l 1
 -1340 584 l 1
 -857 1067 l 1
-695 1039 m 1
 -695 1011 l 1
 -1252 454 l 1
 -1280 454 l 1
 -695 1039 l 1
-695 849 m 1
 -695 821 l 1
 -1062 454 l 1
 -1090 454 l 1
 -695 849 l 1
-695 659 m 1
 -695 631 l 1
 -872 454 l 1
 -900 454 l 1
 -695 659 l 1
-695 469 m 1
 -695 454 l 1
 -710 454 l 1
 -695 469 l 1
EndSplineSet
EndChar

StartChar: u13448
Encoding: 78920 78920 28
Width: 0
Flags: M
LayerCount: 2
Fore
SplineSet
-1280 454 m 1
 -1252 454 l 1
 -1340 366 l 1
 -1340 394 l 1
 -1280 454 l 1
-1090 454 m 1
 -1062 454 l 1
 -1340 176 l 1
 -1340 204 l 1
 -1090 454 l 1
-900 454 m 1
 -872 454 l 1
 -1340 -14 l 1
 -1340 14 l 1
 -900 454 l 1
-710 454 m 1
 -695 454 l 1
 -695 441 l 1
 -1296 -160 l 1
 -1324 -160 l 1
 -710 454 l 1
-695 279 m 1
 -695 251 l 1
 -1106 -160 l 1
 -1134 -160 l 1
 -695 279 l 1
-695 89 m 1
 -695 61 l 1
 -916 -160 l 1
 -944 -160 l 1
 -695 89 l 1
-695 -101 m 1
 -695 -129 l 1
 -726 -160 l 1
 -754 -160 l 1
 -695 -101 l 1
EndSplineSet
EndChar

StartChar: u13449
Encoding: 78921 78921 29
Width: 0
HStem: -14 21G<-1340 -1320>
LayerCount: 2
Fore
SplineSet
-1237 1067 m 1
 -1209 1067 l 1
 -1340 936 l 1
 -1340 964 l 1
 -1237 1067 l 1
-1047 1067 m 1
 -1019 1067 l 1
 -1340 746 l 1
 -1340 774 l 1
 -1047 1067 l 1
-857 1067 m 1
 -829 1067 l 1
 -1340 556 l 1
 -1340 584 l 1
 -857 1067 l 1
-695 1039 m 1
 -695 1011 l 1
 -1340 366 l 1
 -1340 394 l 1
 -695 1039 l 1
-695 849 m 1
 -695 821 l 1
 -1340 176 l 1
 -1340 204 l 1
 -695 849 l 1
-695 659 m 1
 -695 631 l 1
 -1340 -14 l 1
 -1340 14 l 1
 -695 659 l 1
-695 469 m 1
 -695 441 l 1
 -1296 -160 l 1
 -1324 -160 l 1
 -695 469 l 1
-695 279 m 1
 -695 251 l 1
 -1106 -160 l 1
 -1134 -160 l 1
 -695 279 l 1
-695 89 m 1
 -695 61 l 1
 -916 -160 l 1
 -944 -160 l 1
 -695 89 l 1
-695 -101 m 1
 -695 -129 l 1
 -726 -160 l 1
 -754 -160 l 1
 -695 -101 l 1
EndSplineSet
EndChar

StartChar: u1344A
Encoding: 78922 78922 30
Width: 0
Flags: M
LayerCount: 2
Fore
SplineSet
-667 1067 m 1
 -639 1067 l 1
 -694.5 1011.5 l 1
 -694.5 1039.5 l 1
 -667 1067 l 1
-477 1067 m 1
 -449 1067 l 1
 -694.5 821.5 l 1
 -694.5 849.5 l 1
 -477 1067 l 1
-287 1067 m 1
 -259 1067 l 1
 -694.5 631.5 l 1
 -694.5 659.5 l 1
 -287 1067 l 1
-97 1067 m 1
 -69 1067 l 1
 -682.5 453.5 l 1
 -694.5 453.5 l 1
 -694.5 469.5 l 1
 -97 1067 l 1
-50 924 m 1
 -50 896 l 1
 -492.5 453.5 l 1
 -520.5 453.5 l 1
 -50 924 l 1
-50 734 m 1
 -50 706 l 1
 -302.5 453.5 l 1
 -330.5 453.5 l 1
 -50 734 l 1
-50 544 m 1
 -50 516 l 1
 -112.5 453.5 l 1
 -140.5 453.5 l 1
 -50 544 l 1
EndSplineSet
EndChar

StartChar: u1344B
Encoding: 78923 78923 31
Width: 0
Flags: M
LayerCount: 2
Fore
SplineSet
-1237 1067 m 1
 -1209 1067 l 1
 -1340 936 l 1
 -1340 964 l 1
 -1237 1067 l 1
-1047 1067 m 1
 -1019 1067 l 1
 -1340 746 l 1
 -1340 774 l 1
 -1047 1067 l 1
-857 1067 m 1
 -829 1067 l 1
 -1340 556 l 1
 -1340 584 l 1
 -857 1067 l 1
-667 1067 m 1
 -639 1067 l 1
 -1252 454 l 1
 -1280 454 l 1
 -667 1067 l 1
-477 1067 m 1
 -449 1067 l 1
 -1062 454 l 1
 -1090 454 l 1
 -477 1067 l 1
-287 1067 m 1
 -259 1067 l 1
 -872 454 l 1
 -900 454 l 1
 -287 1067 l 1
-97 1067 m 1
 -69 1067 l 1
 -682 454 l 1
 -710 454 l 1
 -97 1067 l 1
-50 924 m 1
 -50 896 l 1
 -492 454 l 1
 -520 454 l 1
 -50 924 l 1
-50 734 m 1
 -50 706 l 1
 -302 454 l 1
 -330 454 l 1
 -50 734 l 1
-50 544 m 1
 -50 516 l 1
 -112 454 l 1
 -140 454 l 1
 -50 544 l 1
EndSplineSet
EndChar

StartChar: u1344D
Encoding: 78925 78925 33
Width: 0
Flags: M
LayerCount: 2
Fore
SplineSet
-1237 1067 m 1
 -1209 1067 l 1
 -1340 936 l 1
 -1340 964 l 1
 -1237 1067 l 1
-1047 1067 m 1
 -1019 1067 l 1
 -1340 746 l 1
 -1340 774 l 1
 -1047 1067 l 1
-857 1067 m 1
 -829 1067 l 1
 -1340 556 l 1
 -1340 584 l 1
 -857 1067 l 1
-667 1067 m 1
 -639 1067 l 1
 -1340 366 l 1
 -1340 394 l 1
 -667 1067 l 1
-477 1067 m 1
 -449 1067 l 1
 -1340 176 l 1
 -1340 204 l 1
 -477 1067 l 1
-287 1067 m 1
 -259 1067 l 1
 -1340 -14 l 1
 -1340 14 l 1
 -287 1067 l 1
-97 1067 m 1
 -69 1067 l 1
 -682 454 l 1
 -695 454 l 1
 -695 441 l 1
 -1296 -160 l 1
 -1324 -160 l 1
 -97 1067 l 1
-50 924 m 1
 -50 896 l 1
 -492 454 l 1
 -520 454 l 1
 -50 924 l 1
-50 734 m 1
 -50 706 l 1
 -302 454 l 1
 -330 454 l 1
 -50 734 l 1
-50 544 m 1
 -50 516 l 1
 -112 454 l 1
 -140 454 l 1
 -50 544 l 1
-695 279 m 1
 -695 251 l 1
 -1106 -160 l 1
 -1134 -160 l 1
 -695 279 l 1
-695 89 m 1
 -695 61 l 1
 -916 -160 l 1
 -944 -160 l 1
 -695 89 l 1
-695 -101 m 1
 -695 -129 l 1
 -726 -160 l 1
 -754 -160 l 1
 -695 -101 l 1
EndSplineSet
EndChar

StartChar: u1344E
Encoding: 78926 78926 34
Width: 0
Flags: M
LayerCount: 2
Fore
SplineSet
-695 454 m 1
 -682 454 l 1
 -695 441 l 1
 -695 454 l 1
-520 454 m 1
 -492 454 l 1
 -695 251 l 1
 -695 279 l 1
 -520 454 l 1
-330 454 m 1
 -302 454 l 1
 -695 61 l 1
 -695 89 l 1
 -330 454 l 1
-140 454 m 1
 -112 454 l 1
 -695 -129 l 1
 -695 -101 l 1
 -140 454 l 1
-49 355 m 1
 -49 327 l 1
 -536 -160 l 1
 -564 -160 l 1
 -49 355 l 1
-49 165 m 1
 -49 137 l 1
 -346 -160 l 1
 -374 -160 l 1
 -49 165 l 1
-49 -25 m 1
 -49 -53 l 1
 -156 -160 l 1
 -184 -160 l 1
 -49 -25 l 1
EndSplineSet
EndChar

StartChar: u13450
Encoding: 78928 78928 36
Width: 0
Flags: M
LayerCount: 2
Fore
SplineSet
-1280 454 m 1
 -1252 454 l 1
 -1340 366 l 1
 -1340 394 l 1
 -1280 454 l 1
-1090 454 m 1
 -1062 454 l 1
 -1340 176 l 1
 -1340 204 l 1
 -1090 454 l 1
-900 454 m 1
 -872 454 l 1
 -1340 -14 l 1
 -1340 14 l 1
 -900 454 l 1
-710 454 m 1
 -682 454 l 1
 -1296 -160 l 1
 -1324 -160 l 1
 -710 454 l 1
-520 454 m 1
 -492 454 l 1
 -1106 -160 l 1
 -1134 -160 l 1
 -520 454 l 1
-330 454 m 1
 -302 454 l 1
 -916 -160 l 1
 -944 -160 l 1
 -330 454 l 1
-140 454 m 1
 -112 454 l 1
 -726 -160 l 1
 -754 -160 l 1
 -140 454 l 1
-49 355 m 1
 -49 327 l 1
 -536 -160 l 1
 -564 -160 l 1
 -49 355 l 1
-49 165 m 1
 -49 137 l 1
 -346 -160 l 1
 -374 -160 l 1
 -49 165 l 1
-49 -25 m 1
 -49 -53 l 1
 -156 -160 l 1
 -184 -160 l 1
 -49 -25 l 1
EndSplineSet
EndChar

StartChar: u13451
Encoding: 78929 78929 37
Width: 0
Flags: M
LayerCount: 2
Fore
SplineSet
-1237 1067 m 1
 -1209 1067 l 1
 -1340 936 l 1
 -1340 964 l 1
 -1237 1067 l 1
-1047 1067 m 1
 -1019 1067 l 1
 -1340 746 l 1
 -1340 774 l 1
 -1047 1067 l 1
-857 1067 m 1
 -829 1067 l 1
 -1340 556 l 1
 -1340 584 l 1
 -857 1067 l 1
-695 1039 m 1
 -695 1011 l 1
 -1340 366 l 1
 -1340 394 l 1
 -695 1039 l 1
-695 849 m 1
 -695 821 l 1
 -1340 176 l 1
 -1340 204 l 1
 -695 849 l 1
-695 659 m 1
 -695 631 l 1
 -1340 -14 l 1
 -1340 14 l 1
 -695 659 l 1
-695 469 m 1
 -695 454 l 1
 -682 454 l 1
 -1296 -160 l 1
 -1324 -160 l 1
 -695 469 l 1
-520 454 m 1
 -492 454 l 1
 -1106 -160 l 1
 -1134 -160 l 1
 -520 454 l 1
-330 454 m 1
 -302 454 l 1
 -916 -160 l 1
 -944 -160 l 1
 -330 454 l 1
-140 454 m 1
 -112 454 l 1
 -726 -160 l 1
 -754 -160 l 1
 -140 454 l 1
-49 355 m 1
 -49 327 l 1
 -536 -160 l 1
 -564 -160 l 1
 -49 355 l 1
-49 165 m 1
 -49 137 l 1
 -346 -160 l 1
 -374 -160 l 1
 -49 165 l 1
-49 -25 m 1
 -49 -53 l 1
 -156 -160 l 1
 -184 -160 l 1
 -49 -25 l 1
EndSplineSet
EndChar

StartChar: u13452
Encoding: 78930 78930 38
Width: 0
Flags: M
LayerCount: 2
Fore
SplineSet
-667 1067 m 1
 -639 1067 l 1
 -694.5 1011.5 l 1
 -694.5 1039.5 l 1
 -667 1067 l 1
-477 1067 m 1
 -449 1067 l 1
 -694.5 821.5 l 1
 -694.5 849.5 l 1
 -477 1067 l 1
-287 1067 m 1
 -259 1067 l 1
 -694.5 631.5 l 1
 -694.5 659.5 l 1
 -287 1067 l 1
-97 1067 m 1
 -69 1067 l 1
 -694.5 441.5 l 1
 -694.5 469.5 l 1
 -97 1067 l 1
-49 925 m 1
 -49 897 l 1
 -694.5 251.5 l 1
 -694.5 279.5 l 1
 -49 925 l 1
-49 735 m 1
 -49 707 l 1
 -694.5 61.5 l 1
 -694.5 89.5 l 1
 -49 735 l 1
-49 545 m 1
 -49 517 l 1
 -694.5 -128.5 l 1
 -694.5 -100.5 l 1
 -49 545 l 1
-49 355 m 1
 -49 327 l 1
 -536 -160 l 1
 -564 -160 l 1
 -49 355 l 1
-49 165 m 1
 -49 137 l 1
 -346 -160 l 1
 -374 -160 l 1
 -49 165 l 1
-49 -25 m 1
 -49 -53 l 1
 -156 -160 l 1
 -184 -160 l 1
 -49 -25 l 1
EndSplineSet
EndChar

StartChar: u13453
Encoding: 78931 78931 39
Width: 0
Flags: M
LayerCount: 2
Fore
SplineSet
-1237 1067 m 1
 -1209 1067 l 1
 -1340 936 l 1
 -1340 964 l 1
 -1237 1067 l 1
-1047 1067 m 1
 -1019 1067 l 1
 -1340 746 l 1
 -1340 774 l 1
 -1047 1067 l 1
-857 1067 m 1
 -829 1067 l 1
 -1340 556 l 1
 -1340 584 l 1
 -857 1067 l 1
-667 1067 m 1
 -639 1067 l 1
 -1252 454 l 1
 -1280 454 l 1
 -667 1067 l 1
-477 1067 m 1
 -449 1067 l 1
 -1062 454 l 1
 -1090 454 l 1
 -477 1067 l 1
-287 1067 m 1
 -259 1067 l 1
 -872 454 l 1
 -900 454 l 1
 -287 1067 l 1
-97 1067 m 1
 -69 1067 l 1
 -694.5 441.5 l 1
 -694.5 454 l 1
 -710 454 l 1
 -97 1067 l 1
-49 925 m 1
 -49 897 l 1
 -694.5 251.5 l 1
 -694.5 279.5 l 1
 -49 925 l 1
-49 735 m 1
 -49 707 l 1
 -694.5 61.5 l 1
 -694.5 89.5 l 1
 -49 735 l 1
-49 545 m 1
 -49 517 l 1
 -694.5 -128.5 l 1
 -694.5 -100.5 l 1
 -49 545 l 1
-49 355 m 1
 -49 327 l 1
 -536 -160 l 1
 -564 -160 l 1
 -49 355 l 1
-49 165 m 1
 -49 137 l 1
 -346 -160 l 1
 -374 -160 l 1
 -49 165 l 1
-49 -25 m 1
 -49 -53 l 1
 -156 -160 l 1
 -184 -160 l 1
 -49 -25 l 1
EndSplineSet
EndChar

StartChar: u13454
Encoding: 78932 78932 40
Width: 0
Flags: M
LayerCount: 2
Fore
SplineSet
-667 1067 m 1
 -639 1067 l 1
 -694.5 1011.5 l 1
 -694.5 1039.5 l 1
 -667 1067 l 1
-477 1067 m 1
 -449 1067 l 1
 -694.5 821.5 l 1
 -694.5 849.5 l 1
 -477 1067 l 1
-287 1067 m 1
 -259 1067 l 1
 -694.5 631.5 l 1
 -694.5 659.5 l 1
 -287 1067 l 1
-97 1067 m 1
 -69 1067 l 1
 -1296 -160 l 1
 -1324 -160 l 1
 -710 454 l 1
 -694.5 454 l 1
 -694.5 469.5 l 1
 -97 1067 l 1
-49 925 m 1
 -49 897 l 1
 -1106 -160 l 1
 -1134 -160 l 1
 -49 925 l 1
-49 735 m 1
 -49 707 l 1
 -916 -160 l 1
 -944 -160 l 1
 -49 735 l 1
-49 545 m 1
 -49 517 l 1
 -726 -160 l 1
 -754 -160 l 1
 -49 545 l 1
-1280 454 m 1
 -1252 454 l 1
 -1340 366 l 1
 -1340 394 l 1
 -1280 454 l 1
-1090 454 m 1
 -1062 454 l 1
 -1340 176 l 1
 -1340 204 l 1
 -1090 454 l 1
-900 454 m 1
 -872 454 l 1
 -1340 -14 l 1
 -1340 14 l 1
 -900 454 l 1
-49 355 m 1
 -49 327 l 1
 -536 -160 l 1
 -564 -160 l 1
 -49 355 l 1
-49 165 m 1
 -49 137 l 1
 -346 -160 l 1
 -374 -160 l 1
 -49 165 l 1
-49 -25 m 1
 -49 -53 l 1
 -156 -160 l 1
 -184 -160 l 1
 -49 -25 l 1
EndSplineSet
EndChar

StartChar: u13443
Encoding: 78915 78915 41
Width: 1389
VWidth: 1100
Flags: MW
LayerCount: 2
Fore
SplineSet
152 1067 m 1
 180 1067 l 1
 49 936 l 1
 49 964 l 1
 152 1067 l 1
342 1067 m 1
 370 1067 l 1
 49 746 l 1
 49 774 l 1
 342 1067 l 1
532 1067 m 1
 560 1067 l 1
 49 556 l 1
 49 584 l 1
 532 1067 l 1
722 1067 m 1
 750 1067 l 1
 49 366 l 1
 49 394 l 1
 722 1067 l 1
912 1067 m 1
 940 1067 l 1
 49 176 l 1
 49 204 l 1
 912 1067 l 1
1102 1067 m 1
 1130 1067 l 1
 49 -14 l 1
 49 14 l 1
 1102 1067 l 1
1292 1067 m 1
 1320 1067 l 1
 93 -160 l 1
 65 -160 l 1
 1292 1067 l 1
1340 925 m 1
 1340 897 l 1
 283 -160 l 1
 255 -160 l 1
 1340 925 l 1
1340 735 m 1
 1340 707 l 1
 473 -160 l 1
 445 -160 l 1
 1340 735 l 1
1340 545 m 1
 1340 517 l 1
 663 -160 l 1
 635 -160 l 1
 1340 545 l 1
1340 355 m 1
 1340 327 l 1
 853 -160 l 1
 825 -160 l 1
 1340 355 l 1
1340 165 m 1
 1340 137 l 1
 1043 -160 l 1
 1015 -160 l 1
 1340 165 l 1
1340 -25 m 1
 1340 -53 l 1
 1233 -160 l 1
 1205 -160 l 1
 1340 -25 l 1
EndSplineSet
EndChar

StartChar: u13444
Encoding: 78916 78916 42
Width: 695
VWidth: 1100
Flags: MW
LayerCount: 2
Fore
SplineSet
167 761 m 1
 195 761 l 1
 49 615 l 1
 49 643 l 1
 167 761 l 1
357 761 m 1
 385 761 l 1
 49 425 l 1
 49 453 l 1
 357 761 l 1
547 761 m 1
 575 761 l 1
 49 235 l 1
 49 263 l 1
 547 761 l 1
646 670 m 1
 646 642 l 1
 151 147 l 1
 123 147 l 1
 646 670 l 1
646 480 m 1
 646 452 l 1
 341 147 l 1
 313 147 l 1
 646 480 l 1
646 290 m 1
 646 262 l 1
 531 147 l 1
 503 147 l 1
 646 290 l 1
EndSplineSet
EndChar

StartChar: u13445
Encoding: 78917 78917 43
Width: 695
VWidth: 1100
Flags: MW
LayerCount: 2
Fore
SplineSet
93 1067 m 1
 121 1067 l 1
 49 995 l 1
 49 1023 l 1
 93 1067 l 1
283 1067 m 1
 311 1067 l 1
 49 805 l 1
 49 833 l 1
 283 1067 l 1
473 1067 m 1
 501 1067 l 1
 49 615 l 1
 49 643 l 1
 473 1067 l 1
646 1050 m 1
 646 1022 l 1
 49 425 l 1
 49 453 l 1
 646 1050 l 1
646 860 m 1
 646 832 l 1
 49 235 l 1
 49 263 l 1
 646 860 l 1
646 670 m 1
 646 642 l 1
 49 45 l 1
 49 73 l 1
 646 670 l 1
646 480 m 1
 646 452 l 1
 49 -145 l 1
 49 -117 l 1
 646 480 l 1
646 290 m 1
 646 262 l 1
 224 -160 l 1
 196 -160 l 1
 646 290 l 1
646 100 m 1
 646 72 l 1
 414 -160 l 1
 386 -160 l 1
 646 100 l 1
646 -90 m 1
 646 -118 l 1
 604 -160 l 1
 576 -160 l 1
 646 -90 l 1
EndSplineSet
EndChar

StartChar: u13446
Encoding: 78918 78918 44
Width: 1389
VWidth: 1100
Flags: MW
LayerCount: 2
Fore
SplineSet
135 761 m 1
 163 761 l 1
 49 647 l 1
 49 675 l 1
 135 761 l 1
325 761 m 1
 353 761 l 1
 49 457 l 1
 49 485 l 1
 325 761 l 1
515 761 m 1
 543 761 l 1
 49 267 l 1
 49 295 l 1
 515 761 l 1
705 761 m 1
 733 761 l 1
 119 147 l 1
 91 147 l 1
 705 761 l 1
895 761 m 1
 923 761 l 1
 309 147 l 1
 281 147 l 1
 895 761 l 1
1085 761 m 1
 1113 761 l 1
 499 147 l 1
 471 147 l 1
 1085 761 l 1
1275 761 m 1
 1303 761 l 1
 689 147 l 1
 661 147 l 1
 1275 761 l 1
1340 636 m 1
 1340 608 l 1
 879 147 l 1
 851 147 l 1
 1340 636 l 1
1340 446 m 1
 1340 418 l 1
 1069 147 l 1
 1041 147 l 1
 1340 446 l 1
1340 256 m 1
 1340 228 l 1
 1259 147 l 1
 1231 147 l 1
 1340 256 l 1
EndSplineSet
EndChar
